# xmcd CD database file
#
# Track frame offsets:
#	150
#	18392
#	37167
#
# Disc length: 758 seconds
#
# Revision: 1
# Processed by: cddbd v1.5.2PL0 Copyright (c) Steve Scherf et al.
# Submitted via: CDex 1.51
#
DISCID=1f02f403
DTITLE=Paul Rodgers - All I Want Is You (MaxiCD)
DYEAR=1997
DGENRE=General Rock
TTITLE0=All I Want Is You (Radio Edit)
TTITLE1=Shadow Of The Sun (Acoustic Version)
TTITLE2=Ride Easy, Ride Slow (Previously Unreleased)
EXTD=YEAR: 1997
EXTT0=
EXTT1=
EXTT2=
PLAYORDER=
